<?xml version="1.0" encoding="UTF-8" standalone="no"?>
<!-- Created with Inkscape (http://www.inkscape.org/) -->

<svg
   xmlns:dc="http://purl.org/dc/elements/1.1/"
   xmlns:cc="http://creativecommons.org/ns#"
   xmlns:rdf="http://www.w3.org/1999/02/22-rdf-syntax-ns#"
   xmlns:svg="http://www.w3.org/2000/svg"
   xmlns="http://www.w3.org/2000/svg"
   xmlns:sodipodi="http://sodipodi.sourceforge.net/DTD/sodipodi-0.dtd"
   xmlns:inkscape="http://www.inkscape.org/namespaces/inkscape"
   width="22"
   height="22"
   viewBox="0 0 22.000001 22.000002"
   id="svg4208"
   version="1.1"
   inkscape:version="0.48.4 r9939"
   sodipodi:docname="quizzOn.svg">
  <defs
     id="defs4210" />
  <sodipodi:namedview
     id="base"
     pagecolor="#ffffff"
     bordercolor="#666666"
     borderopacity="1.0"
     inkscape:pageopacity="0.0"
     inkscape:pageshadow="2"
     inkscape:zoom="14.481547"
     inkscape:cx="20.213132"
     inkscape:cy="13.840792"
     inkscape:document-units="px"
     inkscape:current-layer="layer1"
     showgrid="false"
     inkscape:window-width="1855"
     inkscape:window-height="1056"
     inkscape:window-x="65"
     inkscape:window-y="24"
     inkscape:window-maximized="1" />
  <metadata
     id="metadata4213">
    <rdf:RDF>
      <cc:Work
         rdf:about="">
        <dc:format>image/svg+xml</dc:format>
        <dc:type
           rdf:resource="http://purl.org/dc/dcmitype/StillImage" />
        <dc:title />
      </cc:Work>
    </rdf:RDF>
  </metadata>
  <g
     inkscape:label="Calque 1"
     inkscape:groupmode="layer"
     id="layer1"
     transform="translate(0,-1030.3622)">
    <g
       id="g3065"
       transform="matrix(0.13987874,0,0,0.14224716,-4.400635,906.61726)">
      <path
         inkscape:connector-curvature="0"
         id="path4152"
         d="m 91.229014,959.93306 a 64.4423,17.911567 52.208592 0 0 -53.76267,-40.2411 64.4423,17.911567 52.208592 0 0 25.08146,61.7124 64.4423,17.911567 52.208592 0 0 53.763276,40.24074 64.4423,17.911567 52.208592 0 0 -25.082066,-61.71204 z"
         style="fill:#b3b3b3;fill-opacity:1;stroke:#000000;stroke-width:2.23528218;stroke-miterlimit:4;stroke-opacity:1;stroke-dasharray:none;display:inline" />
      <rect
         transform="matrix(0.61175214,0.7910495,-0.80052922,0.59929372,0,0)"
         y="511.73264"
         x="871.82239"
         height="20.941671"
         width="15.681898"
         id="rect4311"
         style="fill:#b3b3b3;fill-opacity:1;stroke:none;display:inline" />
      <rect
         transform="matrix(0.61175214,0.7910495,-0.80052922,0.59929372,0,0)"
         y="513.85492"
         x="758.71033"
         height="19.048027"
         width="13.667583"
         id="rect4309"
         style="fill:#b3b3b3;fill-opacity:1;stroke:none;display:inline" />
      <rect
         transform="matrix(0.61175214,0.7910495,-0.80052922,0.59929372,0,0)"
         y="512.94604"
         x="886.19995"
         height="0.94452947"
         width="1.1967649"
         id="rect4313"
         style="fill:#b3b3b3;fill-opacity:1;stroke:none;display:inline" />
      <path
         sodipodi:nodetypes="ccc"
         inkscape:connector-curvature="0"
         id="path4156-3"
         d="m 115.96981,1021.8953 9.89486,-7.4107 8.37708,-6.2729"
         style="fill:none;stroke:#000000;stroke-width:2.23528218;stroke-linecap:butt;stroke-linejoin:miter;stroke-miterlimit:4;stroke-opacity:1;stroke-dasharray:none;display:inline" />
      <ellipse
         sodipodi:ry="18.476788"
         sodipodi:rx="64.438011"
         sodipodi:cy="510.5314"
         sodipodi:cx="823.21979"
         d="m 887.6578,510.5314 c 0,10.20445 -28.84988,18.47679 -64.43801,18.47679 -35.58813,0 -64.43801,-8.27234 -64.43801,-18.47679 0,-10.20445 28.84988,-18.47678 64.43801,-18.47678 35.58813,0 64.43801,8.27233 64.43801,18.47678 z"
         transform="matrix(0.61175214,0.7910495,-0.80052922,0.59929372,0,0)"
         ry="18.476788"
         rx="64.438011"
         cy="510.5314"
         cx="823.21979"
         id="path4150"
         style="fill:#666666;stroke:#000000;stroke-width:2.23541927;stroke-miterlimit:4;stroke-opacity:1;stroke-dasharray:none;display:inline" />
      <path
         sodipodi:nodetypes="ccc"
         inkscape:connector-curvature="0"
         id="path4156"
         d="m 37.571044,919.61096 9.7327,-7.2894 8.23979,-6.1701"
         style="fill:none;stroke:#000000;stroke-width:2.23528218;stroke-linecap:butt;stroke-linejoin:miter;stroke-miterlimit:4;stroke-opacity:1;stroke-dasharray:none;display:inline" />
      <ellipse
         sodipodi:ry="8.1607332"
         sodipodi:rx="36.85133"
         sodipodi:cy="511.48398"
         sodipodi:cx="823.78375"
         d="m 860.63508,511.48398 c 0,4.50705 -16.4989,8.16073 -36.85133,8.16073 -20.35243,0 -36.85133,-3.65368 -36.85133,-8.16073 0,-4.50705 16.4989,-8.16073 36.85133,-8.16073 20.35243,0 36.85133,3.65368 36.85133,8.16073 z"
         transform="matrix(0.61175214,0.7910495,-0.80052922,0.59929372,0,0)"
         ry="8.1607332"
         rx="36.85133"
         cy="511.48398"
         cx="823.78375"
         id="path4317"
         style="fill:#e6e6e6;fill-opacity:1;stroke:#000000;stroke-width:1.30889452;stroke-miterlimit:4;stroke-opacity:1;stroke-dasharray:none;display:inline" />
      <rect
         transform="matrix(0.98439737,0.17595972,-0.17595972,0.98439737,0,0)"
         y="900.58234"
         x="235.14644"
         height="3.9420972"
         width="24.027124"
         id="rect5190"
         style="fill:#e6e6e6;fill-opacity:1;stroke:none;display:inline" />
      <rect
         transform="matrix(0.98439737,0.17595972,-0.17595972,0.98439737,0,0)"
         y="899.65472"
         x="236.3831"
         height="4.2899294"
         width="24.027124"
         id="rect5190-9"
         style="fill:#e6e6e6;fill-opacity:1;stroke:none;display:inline" />
      <rect
         transform="matrix(0.98439737,0.17595972,-0.17595972,0.98439737,0,0)"
         y="898.8432"
         x="237.73756"
         height="4.2899294"
         width="24.027124"
         id="rect5190-9-1"
         style="fill:#e6e6e6;fill-opacity:1;stroke:none;display:inline" />
      <rect
         transform="matrix(0.98439737,0.17595972,-0.17595972,0.98439737,0,0)"
         y="897.97357"
         x="238.85649"
         height="4.0000696"
         width="2.1789298"
         id="rect5190-9-4"
         style="fill:#e6e6e6;fill-opacity:1;stroke:none;display:inline" />
      <rect
         transform="matrix(0.98439737,0.17595972,-0.17595972,0.98439737,0,0)"
         y="897.42279"
         x="239.29814"
         height="4.0000696"
         width="2.1789298"
         id="rect5190-9-4-4"
         style="fill:#e6e6e6;fill-opacity:1;stroke:none;display:inline" />
      <rect
         transform="matrix(0.98439737,0.17595972,-0.17595972,0.98439737,0,0)"
         y="901.50983"
         x="235.11696"
         height="2.5362756"
         width="18.712301"
         id="rect5190-9-0"
         style="fill:#e6e6e6;fill-opacity:1;stroke:none;display:inline" />
      <path
         sodipodi:nodetypes="ccc"
         inkscape:connector-curvature="0"
         id="path4156-4"
         d="m 71.811124,929.13486 10.13887,-6.1622 8.58357,-5.2158"
         style="fill:none;stroke:#000000;stroke-width:1.30881441;stroke-linecap:butt;stroke-linejoin:miter;stroke-miterlimit:4;stroke-opacity:1;stroke-dasharray:none;display:inline" />
      <rect
         transform="matrix(0.98439737,0.17595972,-0.17595972,0.98439737,0,0)"
         y="947.53973"
         x="287.14633"
         height="3.3044055"
         width="2.9445004"
         id="rect5279"
         style="fill:#e6e6e6;fill-opacity:1;stroke:none;display:inline" />
      <rect
         transform="matrix(0.98439737,0.17595972,-0.17595972,0.98439737,0,0)"
         y="941.65546"
         x="284.37848"
         height="7.8841953"
         width="6.0067811"
         id="rect5279-2"
         style="fill:#e6e6e6;fill-opacity:1;stroke:none;display:inline" />
      <rect
         transform="matrix(0.98439737,0.17595972,-0.17595972,0.98439737,0,0)"
         y="945.33673"
         x="287.97079"
         height="2.3188815"
         width="4.7700911"
         id="rect5279-2-3"
         style="fill:#e6e6e6;fill-opacity:1;stroke:none;display:inline" />
      <rect
         transform="matrix(0.98439737,0.17595972,-0.17595972,0.98439737,0,0)"
         y="947.01788"
         x="287.17575"
         height="1.9710491"
         width="4.4167509"
         id="rect5279-2-3-3"
         style="fill:#e6e6e6;fill-opacity:1;stroke:none;display:inline" />
      <path
         sodipodi:nodetypes="ccc"
         inkscape:connector-curvature="0"
         id="path4156-4-5"
         d="m 117.09625,987.26976 9.47784,-7.0986 8.02406,-6.0086"
         style="fill:none;stroke:#000000;stroke-width:1.30881441;stroke-linecap:butt;stroke-linejoin:miter;stroke-miterlimit:4;stroke-opacity:1;stroke-dasharray:none;display:inline" />
      <rect
         transform="matrix(0.98439737,0.17595972,-0.17595972,0.98439737,0,0)"
         y="902.95917"
         x="242.86101"
         height="4.2899294"
         width="24.027124"
         id="rect5190-9-3"
         style="fill:#e6e6e6;fill-opacity:1;stroke:none;display:inline" />
      <ellipse
         sodipodi:ry="11.108201"
         sodipodi:rx="36.846485"
         sodipodi:cy="489.52179"
         sodipodi:cx="821.47339"
         d="m 858.31987,489.52179 c 0,6.13489 -16.49673,11.1082 -36.84648,11.1082 -20.34975,0 -36.84649,-4.97331 -36.84649,-11.1082 0,-6.13489 16.49674,-11.1082 36.84649,-11.1082 20.34975,0 36.84648,4.97331 36.84648,11.1082 z"
         transform="matrix(0.61175214,0.7910495,-0.80052922,0.59929372,0,0)"
         ry="11.108201"
         rx="36.846485"
         cy="489.52179"
         cx="821.47339"
         id="path4351"
         style="fill:#800000;fill-opacity:1;stroke:#000000;stroke-width:0.924097;stroke-miterlimit:4;stroke-opacity:1;stroke-dasharray:none;display:inline" />
      <path
         id="path4564"
         d="m 78.648494,888.92156 c 28.049046,-21.2308 69.407016,-14.6493 92.435696,14.5429 23.02867,29.1922 19.04627,70.2299 -9.00275,91.4606 -27.96073,21.25254 -111.393666,-84.7511 -83.432946,-106.0035 z"
         stroke-miterlimit="10"
         style="fill:#aa0000;fill-opacity:1;stroke:#000000;stroke-width:4.48099518;stroke-miterlimit:10;stroke-dasharray:none;display:inline"
         inkscape:connector-curvature="0" />
    </g>
  </g>
</svg>
