<?xml version="1.0" encoding="UTF-8" standalone="no"?>
<!-- Created with Inkscape (http://www.inkscape.org/) -->

<svg
   xmlns:dc="http://purl.org/dc/elements/1.1/"
   xmlns:cc="http://creativecommons.org/ns#"
   xmlns:rdf="http://www.w3.org/1999/02/22-rdf-syntax-ns#"
   xmlns:svg="http://www.w3.org/2000/svg"
   xmlns="http://www.w3.org/2000/svg"
   xmlns:sodipodi="http://sodipodi.sourceforge.net/DTD/sodipodi-0.dtd"
   xmlns:inkscape="http://www.inkscape.org/namespaces/inkscape"
   width="22"
   height="22"
   viewBox="0 0 22.000001 22.000001"
   id="svg4208"
   version="1.1"
   inkscape:version="0.48.4 r9939"
   sodipodi:docname="quizzOff.svg">
  <defs
     id="defs4210" />
  <sodipodi:namedview
     id="base"
     pagecolor="#ffffff"
     bordercolor="#666666"
     borderopacity="1.0"
     inkscape:pageopacity="0.0"
     inkscape:pageshadow="2"
     inkscape:zoom="20.48"
     inkscape:cx="26.114676"
     inkscape:cy="19.183621"
     inkscape:document-units="px"
     inkscape:current-layer="layer1"
     showgrid="false"
     inkscape:window-width="1855"
     inkscape:window-height="1056"
     inkscape:window-x="65"
     inkscape:window-y="24"
     inkscape:window-maximized="1" />
  <metadata
     id="metadata4213">
    <rdf:RDF>
      <cc:Work
         rdf:about="">
        <dc:format>image/svg+xml</dc:format>
        <dc:type
           rdf:resource="http://purl.org/dc/dcmitype/StillImage" />
        <dc:title />
      </cc:Work>
    </rdf:RDF>
  </metadata>
  <g
     inkscape:label="Calque 1"
     inkscape:groupmode="layer"
     id="layer1"
     transform="translate(0,-1030.3622)">
    <g
       id="g3090"
       transform="matrix(0.13943692,0,0,0.1456598,-4.0481427,902.11583)">
      <path
         inkscape:connector-curvature="0"
         id="path4152"
         d="m 88.762577,966.09408 a 64.442296,17.911566 52.208592 0 0 -53.76267,-40.24111 64.442296,17.911566 52.208592 0 0 25.08146,61.71245 64.442296,17.911566 52.208592 0 0 53.763283,40.24068 64.442296,17.911566 52.208592 0 0 -25.082073,-61.71202 z"
         style="fill:#b3b3b3;fill-opacity:1;stroke:#000000;stroke-width:2.23528218;stroke-miterlimit:4;stroke-opacity:1;stroke-dasharray:none;display:inline" />
      <rect
         transform="matrix(0.61175214,0.7910495,-0.80052922,0.59929372,0,0)"
         y="517.45343"
         x="875.27667"
         height="20.941669"
         width="15.681897"
         id="rect4311"
         style="fill:#b3b3b3;fill-opacity:1;stroke:none;display:inline" />
      <rect
         transform="matrix(0.61175214,0.7910495,-0.80052922,0.59929372,0,0)"
         y="519.57574"
         x="762.16467"
         height="19.048025"
         width="13.667582"
         id="rect4309"
         style="fill:#b3b3b3;fill-opacity:1;stroke:none;display:inline" />
      <rect
         transform="matrix(0.61175214,0.7910495,-0.80052922,0.59929372,0,0)"
         y="518.66687"
         x="889.6543"
         height="0.94452941"
         width="1.1967648"
         id="rect4313"
         style="fill:#b3b3b3;fill-opacity:1;stroke:none;display:inline" />
      <path
         sodipodi:nodetypes="ccc"
         inkscape:connector-curvature="0"
         id="path4156-3"
         d="m 113.50338,1028.0563 9.89486,-7.4107 8.37707,-6.2729"
         style="fill:none;stroke:#000000;stroke-width:2.23528218;stroke-linecap:butt;stroke-linejoin:miter;stroke-miterlimit:4;stroke-opacity:1;stroke-dasharray:none;display:inline" />
      <ellipse
         sodipodi:ry="18.476786"
         sodipodi:rx="64.438011"
         sodipodi:cy="516.2522"
         sodipodi:cx="826.67413"
         d="m 891.11214,516.2522 c 0,10.20444 -28.84988,18.47678 -64.43801,18.47678 -35.58813,0 -64.43801,-8.27234 -64.43801,-18.47678 0,-10.20445 28.84988,-18.47679 64.43801,-18.47679 35.58813,0 64.43801,8.27234 64.43801,18.47679 z"
         transform="matrix(0.61175214,0.7910495,-0.80052922,0.59929372,0,0)"
         ry="18.476786"
         rx="64.438011"
         cy="516.2522"
         cx="826.67413"
         id="path4150"
         style="fill:#666666;stroke:#000000;stroke-width:2.23541927;stroke-miterlimit:4;stroke-opacity:1;stroke-dasharray:none;display:inline" />
      <path
         sodipodi:nodetypes="ccc"
         inkscape:connector-curvature="0"
         id="path4156"
         d="m 35.104607,925.77201 9.7327,-7.28939 8.23979,-6.17012"
         style="fill:none;stroke:#000000;stroke-width:2.23528218;stroke-linecap:butt;stroke-linejoin:miter;stroke-miterlimit:4;stroke-opacity:1;stroke-dasharray:none;display:inline" />
      <ellipse
         sodipodi:ry="8.1607332"
         sodipodi:rx="36.851326"
         sodipodi:cy="517.20477"
         sodipodi:cx="827.2381"
         d="m 864.08942,517.20477 c 0,4.50705 -16.4989,8.16074 -36.85132,8.16074 -20.35243,0 -36.85133,-3.65369 -36.85133,-8.16074 0,-4.50705 16.4989,-8.16073 36.85133,-8.16073 20.35242,0 36.85132,3.65368 36.85132,8.16073 z"
         transform="matrix(0.61175214,0.7910495,-0.80052922,0.59929372,0,0)"
         ry="8.1607332"
         rx="36.851326"
         cy="517.20477"
         cx="827.2381"
         id="path4317"
         style="fill:#e6e6e6;fill-opacity:1;stroke:#000000;stroke-width:1.30889452;stroke-miterlimit:4;stroke-opacity:1;stroke-dasharray:none;display:inline" />
      <rect
         transform="matrix(0.98439737,0.17595972,-0.17595972,0.98439737,0,0)"
         y="907.08124"
         x="233.80257"
         height="3.9420969"
         width="24.027122"
         id="rect5190"
         style="fill:#e6e6e6;fill-opacity:1;stroke:none;display:inline" />
      <rect
         transform="matrix(0.98439737,0.17595972,-0.17595972,0.98439737,0,0)"
         y="906.15369"
         x="235.03923"
         height="4.2899289"
         width="24.027122"
         id="rect5190-9"
         style="fill:#e6e6e6;fill-opacity:1;stroke:none;display:inline" />
      <rect
         transform="matrix(0.98439737,0.17595972,-0.17595972,0.98439737,0,0)"
         y="905.3421"
         x="236.39369"
         height="4.2899289"
         width="24.027122"
         id="rect5190-9-1"
         style="fill:#e6e6e6;fill-opacity:1;stroke:none;display:inline" />
      <rect
         transform="matrix(0.98439737,0.17595972,-0.17595972,0.98439737,0,0)"
         y="904.47247"
         x="237.51262"
         height="4.0000691"
         width="2.1789296"
         id="rect5190-9-4"
         style="fill:#e6e6e6;fill-opacity:1;stroke:none;display:inline" />
      <rect
         transform="matrix(0.98439737,0.17595972,-0.17595972,0.98439737,0,0)"
         y="903.92175"
         x="237.95427"
         height="4.0000691"
         width="2.1789296"
         id="rect5190-9-4-4"
         style="fill:#e6e6e6;fill-opacity:1;stroke:none;display:inline" />
      <rect
         transform="matrix(0.98439737,0.17595972,-0.17595972,0.98439737,0,0)"
         y="908.00873"
         x="233.77309"
         height="2.5362754"
         width="18.712299"
         id="rect5190-9-0"
         style="fill:#e6e6e6;fill-opacity:1;stroke:none;display:inline" />
      <path
         sodipodi:nodetypes="ccc"
         inkscape:connector-curvature="0"
         id="path4156-4"
         d="m 69.344687,935.29586 10.13887,-6.16215 8.58357,-5.21581"
         style="fill:none;stroke:#000000;stroke-width:1.30881441;stroke-linecap:butt;stroke-linejoin:miter;stroke-miterlimit:4;stroke-opacity:1;stroke-dasharray:none;display:inline" />
      <rect
         transform="matrix(0.98439737,0.17595972,-0.17595972,0.98439737,0,0)"
         y="954.03864"
         x="285.80243"
         height="3.3044052"
         width="2.9445002"
         id="rect5279"
         style="fill:#e6e6e6;fill-opacity:1;stroke:none;display:inline" />
      <rect
         transform="matrix(0.98439737,0.17595972,-0.17595972,0.98439737,0,0)"
         y="948.15442"
         x="283.03458"
         height="7.8841949"
         width="6.0067806"
         id="rect5279-2"
         style="fill:#e6e6e6;fill-opacity:1;stroke:none;display:inline" />
      <rect
         transform="matrix(0.98439737,0.17595972,-0.17595972,0.98439737,0,0)"
         y="951.83563"
         x="286.62689"
         height="2.3188813"
         width="4.7700906"
         id="rect5279-2-3"
         style="fill:#e6e6e6;fill-opacity:1;stroke:none;display:inline" />
      <rect
         transform="matrix(0.98439737,0.17595972,-0.17595972,0.98439737,0,0)"
         y="953.51678"
         x="285.83188"
         height="1.971049"
         width="4.4167504"
         id="rect5279-2-3-3"
         style="fill:#e6e6e6;fill-opacity:1;stroke:none;display:inline" />
      <path
         sodipodi:nodetypes="ccc"
         inkscape:connector-curvature="0"
         id="path4156-4-5"
         d="m 114.62982,993.43082 9.47784,-7.0986 8.02405,-6.00861"
         style="fill:none;stroke:#000000;stroke-width:1.30881441;stroke-linecap:butt;stroke-linejoin:miter;stroke-miterlimit:4;stroke-opacity:1;stroke-dasharray:none;display:inline" />
      <rect
         transform="matrix(0.98439737,0.17595972,-0.17595972,0.98439737,0,0)"
         y="909.45807"
         x="241.51714"
         height="4.2899289"
         width="24.027122"
         id="rect5190-9-3"
         style="fill:#e6e6e6;fill-opacity:1;stroke:none;display:inline" />
      <ellipse
         sodipodi:ry="11.1082"
         sodipodi:rx="36.846481"
         sodipodi:cy="495.24258"
         sodipodi:cx="824.92773"
         d="m 861.77422,495.24258 c 0,6.13489 -16.49674,11.1082 -36.84649,11.1082 -20.34975,0 -36.84648,-4.97331 -36.84648,-11.1082 0,-6.13489 16.49673,-11.1082 36.84648,-11.1082 20.34975,0 36.84649,4.97331 36.84649,11.1082 z"
         transform="matrix(0.61175214,0.7910495,-0.80052922,0.59929372,0,0)"
         ry="11.1082"
         rx="36.846481"
         cy="495.24258"
         cx="824.92773"
         id="path4351"
         style="fill:#800000;fill-opacity:1;stroke:#000000;stroke-width:0.924097;stroke-miterlimit:4;stroke-opacity:1;stroke-dasharray:none;display:inline" />
      <path
         id="path4564"
         d="m 76.182057,895.08255 c 28.049053,-21.23075 69.407013,-14.64926 92.435693,14.54291 23.02867,29.19218 19.04627,70.22994 -9.00275,91.46064 -27.96073,21.2524 -111.393663,-84.75115 -83.432943,-106.00355 z"
         stroke-miterlimit="10"
         style="fill:#b3b3b3;fill-opacity:1;stroke:#000000;stroke-width:4.48099518;stroke-miterlimit:10;stroke-dasharray:none;display:inline"
         inkscape:connector-curvature="0" />
    </g>
  </g>
</svg>
