<?xml version="1.0" encoding="UTF-8" standalone="no"?>
<!-- Generator: Adobe Illustrator 16.0.4, SVG Export Plug-In . SVG Version: 6.00 Build 0)  -->

<svg
   xmlns:dc="http://purl.org/dc/elements/1.1/"
   xmlns:cc="http://creativecommons.org/ns#"
   xmlns:rdf="http://www.w3.org/1999/02/22-rdf-syntax-ns#"
   xmlns:svg="http://www.w3.org/2000/svg"
   xmlns="http://www.w3.org/2000/svg"
   xmlns:sodipodi="http://sodipodi.sourceforge.net/DTD/sodipodi-0.dtd"
   xmlns:inkscape="http://www.inkscape.org/namespaces/inkscape"
   version="1.1"
   id="twitter_logo"
   x="0px"
   y="0px"
   width="42px"
   height="42px"
   viewBox="0 0 42 42"
   xml:space="preserve"
   inkscape:version="0.48.5 r10040"
   sodipodi:docname="twitter.svg"><metadata
     id="metadata11"><rdf:RDF><cc:Work
         rdf:about=""><dc:format>image/svg+xml</dc:format><dc:type
           rdf:resource="http://purl.org/dc/dcmitype/StillImage" /></cc:Work></rdf:RDF></metadata><defs
     id="defs9" /><sodipodi:namedview
     pagecolor="#ffffff"
     bordercolor="#666666"
     borderopacity="1"
     objecttolerance="10"
     gridtolerance="10"
     guidetolerance="10"
     inkscape:pageopacity="0"
     inkscape:pageshadow="2"
     inkscape:window-width="1680"
     inkscape:window-height="1015"
     id="namedview7"
     showgrid="false"
     inkscape:zoom="5.6190476"
     inkscape:cx="-11.478814"
     inkscape:cy="21"
     inkscape:window-x="0"
     inkscape:window-y="26"
     inkscape:window-maximized="0"
     inkscape:current-layer="g3" /><g
     fill="#ddd"
     stroke="black"
     transform="matrix(.57079,0,0,-.57079,-42.80937,432.2052)"
     id="g3"><path
       d="M146.83,743.433c-0.469-0.979-1.341-2.217-2.618-3.711c-1.276-1.497-2.85-2.811-4.725-3.947   c0.051-0.411,0.091-0.799,0.116-1.158c0.202-5.559-1.143-11.324-3.008-16.127c-3.617-8.931-9.157-16.12-17.071-21   c-8.252-4.688-17.862-5.684-26.717-4.833c-5.879,0.667-11.673,2.568-16.055,6.149c8.014-0.948,15.494,1.75,21.407,6.11   c-6.57-0.164-11.34,4.541-13.595,9.98c1.016-0.265,2.079-0.234,3.047-0.157c1.193,0.113,2.325,0.222,3.437,0.465   c-4.188,1.338-7.853,3.797-9.766,7.502c-1.122,2.349-1.629,4.583-1.639,7.116c1.961-1.023,4.322-2.021,6.484-1.933   c-3.264,2.737-5.882,6.235-6.368,10.248c-0.308,3.345,0.539,6.4,1.759,9.242c4.881-5.311,10.359-9.685,16.678-12.375   c4.322-1.752,8.631-2.691,13.087-2.707c-0.515,3.94-0.115,7.749,1.757,10.982c2.204,3.477,5.42,5.492,9.023,6.498   c5.16,1.311,10.192-0.542,13.36-4.099c3.417,0.364,6.691,1.867,9.297,3.401c-1.107-3.319-3.263-6.619-6.407-8.199   C141.308,741.429,144.163,742.307,146.83,743.433z"
       id="path5"
       style="fill:#55acee;fill-opacity:1" /></g></svg>